<svg xmlns="http://www.w3.org/2000/svg" width="840" height="1061"  style="color:#fff">
<path d="M0 0 C1.29621515 -0.00923685 1.29621515 -0.00923685 2.61861646 -0.01866031 C5.52831377 -0.03568931 8.43758591 -0.0312965 11.34732437 -0.02704239 C13.4488786 -0.03479224 15.5504284 -0.04383141 17.65197206 -0.05405259 C23.43812469 -0.07828525 29.22416573 -0.08363254 35.0103631 -0.08584499 C41.24639164 -0.0913927 47.48236208 -0.11403259 53.71835709 -0.13425064 C68.07009513 -0.17714309 82.42179668 -0.19458168 96.77358521 -0.20832648 C103.86546962 -0.21533459 110.95734675 -0.22614252 118.04922548 -0.23741261 C142.32501419 -0.27591694 166.60079885 -0.30807586 190.87661743 -0.31842041 C192.40039731 -0.31908531 193.92417718 -0.31975066 195.44795705 -0.32041647 C196.97541548 -0.32107839 198.5028739 -0.32173983 200.03033233 -0.32240081 C203.09467555 -0.32372847 206.15901876 -0.32506981 209.22336197 -0.32641983 C209.98314048 -0.326748 210.74291899 -0.32707618 211.52572109 -0.32741429 C236.16544267 -0.33830789 260.80489954 -0.38607598 285.44451974 -0.45599092 C311.49462433 -0.529773 337.54457761 -0.57093826 363.59478974 -0.57452416 C366.4541984 -0.57503853 369.31360699 -0.57568481 372.17301559 -0.57642746 C373.22911675 -0.57667842 373.22911675 -0.57667842 374.30655328 -0.57693445 C385.63835819 -0.58038677 396.96989148 -0.61345885 408.30160466 -0.65708863 C419.69041675 -0.7001802 431.07878238 -0.70913928 442.46768877 -0.68576869 C448.63814239 -0.67403001 454.8076818 -0.67692768 460.97802353 -0.71894073 C466.62632164 -0.75704811 472.27301528 -0.75366712 477.92130998 -0.7171686 C479.96506394 -0.71127803 482.00893012 -0.72062467 484.05252621 -0.74670169 C501.18940266 -0.95153873 501.18940266 -0.95153873 507.15135479 4.00621891 C511.99204615 10.22676175 511.68130429 17.20641845 511.55424881 24.70579147 C511.56104517 26.25992645 511.57178346 27.81404831 511.58610362 29.36813217 C511.61390878 33.62353904 511.58579821 37.87699704 511.54826844 42.13226116 C511.51756525 46.72763614 511.53891296 51.32281154 511.55369949 55.91822433 C511.5744402 64.91703826 511.5472424 73.91509925 511.50386063 82.91380774 C511.45509279 93.404885 511.4539609 103.89580638 511.45476278 114.3869772 C511.45457653 133.11930865 511.41129937 151.85129331 511.3437233 170.58349228 C511.27828864 188.73295808 511.24278808 206.88214884 511.24118423 225.03173447 C511.24102989 226.70654831 511.24102989 226.70654831 511.24087242 228.41519677 C511.24077416 229.52986166 511.2406759 230.64452655 511.24057466 231.79296917 C511.23858943 252.48289235 511.21029128 273.17270397 511.16865781 293.86258338 C511.15448761 301.16244673 511.14767779 308.46229597 511.14304924 315.76217079 C511.13680601 324.67455551 511.11506235 333.586761 511.07466594 342.49905836 C511.05433794 347.0400279 511.0399761 351.58078397 511.04298782 356.12180328 C511.05736371 391.07555285 511.05736371 391.07555285 506.44504166 405.39428329 C506.13426084 406.39011649 505.82348001 407.38594969 505.50328159 408.41195965 C501.18133 421.35163287 490.66992362 432.20157634 478.68332291 438.37084579 C464.47555499 444.86724229 448.57181492 445.30578891 433.18332291 445.60522079 C432.14601784 445.62674713 432.14601784 445.62674713 431.08775711 445.64870834 C428.24995233 445.70602608 425.41238108 445.76137514 422.57419205 445.79565048 C420.46425362 445.82313536 418.35536018 445.86887364 416.24582291 445.91772079 C415.0100148 445.93754013 413.7742067 445.95735947 412.50094986 445.97777939 C409.0806418 446.44394904 408.55463062 446.82509302 406.44504166 449.39428329 C403.08173472 456.02703996 403.03340028 462.86694544 403.10788345 470.14599228 C403.10705261 471.86023643 403.10705261 471.86023643 403.10620499 473.60911179 C403.10646391 476.07914664 403.11330054 478.54918785 403.12604713 481.01918983 C403.14451363 484.94419822 403.14172642 488.86867585 403.13298416 492.79371262 C403.11024013 503.94962583 403.12179836 515.10536135 403.16012955 526.26122665 C403.1811108 532.43519853 403.18006846 538.60880281 403.15659457 544.78276879 C403.14528853 548.03646014 403.14863595 551.28907383 403.17292213 554.54271889 C403.2833747 569.64013875 402.49754447 582.45192485 396.44504166 596.39428329 C396.01450989 597.41191254 395.58397812 598.42954178 395.14039993 599.47800827 C390.31194323 610.37798409 381.53158764 620.55660046 370.67941666 625.70678329 C361.81800523 629.07312953 353.16366116 630.77131483 343.69504166 630.70678329 C342.82178238 630.70114365 341.9485231 630.695504 341.04880142 630.68969345 C326.02845119 630.40981975 313.30772593 626.01557458 302.44504166 615.39428329 C302.44504166 614.73428329 302.44504166 614.07428329 302.44504166 613.39428329 C301.78504166 613.39428329 301.12504166 613.39428329 300.44504166 613.39428329 C292.84100398 603.8892362 288.17670078 593.35931203 285.05908585 581.67109299 C284.64138283 580.1222952 284.18119872 578.58447103 283.68426895 577.05924606 C280.20460098 564.91021748 281.07202881 552.26561911 281.15207291 539.74975204 C281.15767615 537.16758599 281.1619428 534.58541671 281.16493607 532.00324631 C281.17516711 525.93329532 281.19874008 519.86353455 281.22898453 513.79365474 C281.26270056 506.87452408 281.27905745 499.95538487 281.29407084 493.0361923 C281.32529571 478.82213453 281.37794781 464.60821481 281.44504166 450.39428329 C280.78504166 450.39428329 280.12504166 450.39428329 279.44504166 450.39428329 C277.82004166 449.01928329 277.82004166 449.01928329 276.44504166 447.39428329 C276.44504166 446.73428329 276.44504166 446.07428329 276.44504166 445.39428329 C268.29963254 445.43233515 260.15477529 445.49168806 252.00975037 445.57818604 C248.2275838 445.61768335 244.44565082 445.64986041 240.66330338 445.66527939 C237.01256531 445.68043169 233.36246931 445.71485026 229.71201706 445.76259232 C228.31983651 445.77742114 226.92756429 445.78532518 225.53530502 445.78616714 C223.58421 445.78853364 221.6332043 445.81787884 219.68234634 445.84838486 C218.57204056 445.8572673 217.46173477 445.86614975 216.31778336 445.87530136 C212.72247548 446.52482019 211.72322963 447.58645613 209.44504166 450.39428329 C208.85905421 452.78384949 208.85905421 452.78384949 208.95970535 455.41027451 C208.94967484 456.92757912 208.94967484 456.92757912 208.93944168 458.47553635 C208.95232727 459.57987518 208.96521286 460.68421402 208.97848892 461.82201767 C208.97618271 462.9901651 208.9738765 464.15831253 208.9715004 465.36185837 C208.96817884 468.56763053 208.98218577 471.77281326 209.00219464 474.97850609 C209.0177306 478.3524431 209.00670062 481.72627198 208.99727249 485.10021591 C208.97409931 495.1455303 208.99225237 505.19072524 209.01877213 515.23601913 C209.03885883 523.0188405 209.04701102 530.80131849 209.02183574 538.58414125 C209.0083251 543.21567122 209.03163745 547.84616233 209.06138992 552.47765732 C209.07295016 569.8528621 207.81428118 585.89174018 199.44504166 601.39428329 C198.95519791 602.30178329 198.46535416 603.20928329 197.96066666 604.14428329 C197.54301041 604.88678329 197.12535416 605.62928329 196.69504166 606.39428329 C196.26707291 607.15740829 195.83910416 607.92053329 195.39816666 608.70678329 C195.08363541 609.26365829 194.76910416 609.82053329 194.44504166 610.39428329 C193.78504166 610.39428329 193.12504166 610.39428329 192.44504166 610.39428329 C192.07379166 611.26053329 192.07379166 611.26053329 191.69504166 612.14428329 C190.26204177 614.72368309 188.66079489 616.45549921 186.44504166 618.39428329 C185.78504166 618.39428329 185.12504166 618.39428329 184.44504166 618.39428329 C184.44504166 619.05428329 184.44504166 619.71428329 184.44504166 620.39428329 C173.16321564 627.14204212 161.45558956 630.8027093 148.25754166 630.70678329 C147.43455582 630.70114365 146.61156998 630.695504 145.76364517 630.68969345 C129.26650489 630.36606304 117.06261821 625.24847037 105.44504166 613.39428329 C102.98632685 610.44515098 101.44504166 608.36495882 101.44504166 604.39428329 C100.78504166 604.39428329 100.12504166 604.39428329 99.44504166 604.39428329 C98.49441351 602.16999801 97.55989845 599.94077045 96.63254166 597.70678329 C96.3715065 597.10027939 96.11047134 596.49377548 95.84152603 595.86889267 C91.50315622 585.31754881 89.99832138 574.75921637 90.07614517 563.41552353 C90.07049545 561.57888893 90.07049545 561.57888893 90.0647316 559.7051506 C90.05834189 557.07232429 90.05712142 554.44012716 90.06491661 551.80736732 C90.07662215 547.64231578 90.06424014 543.4775365 90.04829788 539.31251144 C90.01232803 528.98169131 90.0058813 518.65088071 90.00839615 508.32000351 C90.01010751 500.25993079 90.00302548 492.20008443 89.96841758 484.14007527 C89.95164169 480.00052793 89.95339886 475.86153452 89.96924031 471.72198951 C89.97639025 468.55076852 89.95781255 465.37967712 89.94333267 462.20849228 C89.95307617 461.06510391 89.96281967 459.92171555 89.97285843 458.74367905 C89.9632811 457.69678406 89.95370377 456.64988907 89.94383621 455.57126999 C89.94415014 454.20837672 89.94415014 454.20837672 89.94447041 452.81795025 C89.28053687 449.59596156 88.00592189 448.39939995 85.44504166 446.39428329 C82.81467146 445.99803439 80.58880991 445.83613432 77.96066666 445.85522079 C77.22741165 445.84342789 76.49415665 445.83163498 75.73868179 445.81948471 C73.39058881 445.78426736 71.0433764 445.77508046 68.69504166 445.76928329 C65.63752926 445.74730076 62.58041961 445.71317072 59.52316666 445.66772079 C58.76955353 445.65675369 58.0159404 445.64578659 57.23949051 445.63448715 C37.58972415 445.20909627 17.84076647 441.97270757 2.95676041 428.07006454 C-13.84510023 410.08219021 -18.05104279 387.24498823 -17.9426384 363.3883934 C-17.9468249 361.85665504 -17.95230953 360.32491978 -17.95895821 358.79319012 C-17.97325712 354.63786914 -17.96921772 350.48274911 -17.9617914 346.32741785 C-17.95702349 341.82581821 -17.96960068 337.32425982 -17.97980881 332.8226738 C-17.99692647 324.02810612 -17.99785224 315.2336101 -17.9925959 306.4390301 C-17.98854306 299.29227247 -17.99001091 292.14553592 -17.99534416 284.9987793 C-17.99609258 283.97899539 -17.99684101 282.95921148 -17.99761211 281.90852503 C-17.99914366 279.83653822 -18.000682 277.76455142 -18.00222708 275.69256462 C-18.01592434 256.3060861 -18.01053192 236.91964805 -17.99904186 217.53317048 C-17.98909229 199.79802484 -18.00208482 182.06298326 -18.02597605 164.32785366 C-18.05034989 146.09678077 -18.05998039 127.86575638 -18.05332333 109.63466752 C-18.04982988 99.40710742 -18.05207258 89.17962753 -18.06957436 78.95207977 C-18.08427398 70.25481186 -18.08496009 61.55768079 -18.06750344 52.86041562 C-18.05897638 48.42401076 -18.05688593 43.98785062 -18.072155 39.55145836 C-18.08595918 35.49054824 -18.08129448 31.43009351 -18.06191576 27.36921002 C-18.0581426 25.90056027 -18.06111557 24.4318744 -18.07152741 22.9632567 C-18.16359145 8.98340732 -18.16359145 8.98340732 -13.55495834 3.39428329 C-9.25898223 0.03504496 -5.2506596 -0.03473193 0 0 Z " fill="#000000" transform="translate(173.55495834350586,352.60571670532227)"/>
<path d="M0 0 C6.6875 0.875 6.6875 0.875 9.5 2 C11 4 11 4 11 7.9375 C7.63751456 28.08008104 -5.16171748 47.17784394 -16.265625 63.9765625 C-16.81371826 64.81396973 -17.36181152 65.65137695 -17.92651367 66.51416016 C-18.98698167 68.12551446 -20.06188029 69.72749984 -21.15356445 71.31787109 C-24.65587644 76.64639275 -25.74036932 80.6168847 -26 87 C-25.34 87 -24.68 87 -24 87 C-24 87.66 -24 88.32 -24 89 C-23.29488281 89.25265625 -22.58976562 89.5053125 -21.86328125 89.765625 C-13.91357203 93.19278477 -5.3860523 99.10229287 1 105 C1 105.66 1 106.32 1 107 C1.66 107.20625 2.32 107.4125 3 107.625 C9.32973126 110.52612683 14.13847191 115.10235358 19 120 C21.01391672 121.86253506 23.03434459 123.7156993 25.0625 125.5625 C29.72148706 129.84081783 34.31257872 134.17941739 38.8125 138.625 C39.33400635 139.13361572 39.8555127 139.64223145 40.39282227 140.16625977 C41.63523491 141.40530029 42.82339002 142.69830896 44 144 C44 144.66 44 145.32 44 146 C44.99 146.33 45.98 146.66 47 147 C47 147.66 47 148.32 47 149 C47.66 149 48.32 149 49 149 C50.35693359 150.48120117 50.35693359 150.48120117 51.8984375 152.54296875 C52.46046875 153.28740234 53.0225 154.03183594 53.6015625 154.79882812 C54.18679688 155.58708984 54.77203125 156.37535156 55.375 157.1875 C56.52821742 158.7229781 57.68185323 160.25814207 58.8359375 161.79296875 C59.38572266 162.52813721 59.93550781 163.26330566 60.50195312 164.02075195 C61.67834886 165.57502839 62.89122627 167.10170038 64.1171875 168.6171875 C74.20449775 181.38328553 82.7266714 196.02495753 89 211 C89.72316406 212.70929688 89.72316406 212.70929688 90.4609375 214.453125 C101.47692594 240.95540896 106.84066969 268.29268673 106 297 C100.88298394 299.02684231 96.26188486 299.41832269 90.83614063 299.61706352 C89.51653078 299.67349524 89.51653078 299.67349524 88.17026215 299.73106699 C78.9877205 300.09425417 69.81012175 300.13965586 60.62174988 300.12698364 C58.75962411 300.12813951 56.89749858 300.12973014 55.03537351 300.13171089 C49.97953365 300.13584097 44.92371295 300.1338424 39.86787307 300.13072467 C34.39026192 300.12844443 28.91265386 300.13196335 23.43504333 300.13470459 C12.72313626 300.13913505 2.01123623 300.13819747 -8.70067111 300.13529195 C-17.42363919 300.13302495 -26.14660531 300.132731 -34.86957359 300.13381577 C-36.73863961 300.13404561 -36.73863961 300.13404561 -38.64546454 300.13428011 C-41.17776834 300.13459987 -43.71007213 300.13492409 -46.24237593 300.1352527 C-69.28162685 300.13801905 -92.32087467 300.13515773 -115.36012483 300.1299101 C-136.30234113 300.12517627 -157.24455134 300.12558037 -178.18676758 300.13037109 C-201.79217699 300.13575317 -225.39758372 300.13781452 -249.00299376 300.13475883 C-251.5313048 300.13444033 -254.05961583 300.13412596 -256.58792686 300.13381577 C-257.8314454 300.13366149 -259.07496393 300.13350721 -260.35616485 300.13334826 C-269.04040542 300.13249166 -277.72464381 300.13392758 -286.40888405 300.13629532 C-297.03419057 300.13912883 -307.65948974 300.13828187 -318.28479544 300.13301457 C-323.6871059 300.13042311 -329.08940417 300.12929284 -334.49171448 300.13266373 C-354.1285148 300.14364674 -373.76673922 300.11242848 -393.40043285 299.72782622 C-395.10197538 299.69597335 -396.80361127 299.66871931 -398.50530616 299.646446 C-400.83490321 299.61424832 -403.16334729 299.56336987 -405.49247265 299.50716972 C-406.80352291 299.4818092 -408.11457318 299.45644869 -409.46535224 299.43031967 C-413.23489609 298.97140298 -415.73518558 297.89417257 -419 296 C-419 295.34 -419 294.68 -419 294 C-419.66 294 -420.32 294 -421 294 C-423.94329983 288.11340033 -421.66383214 279.54049848 -420.625 273.3125 C-420.49867188 272.49716797 -420.37234375 271.68183594 -420.2421875 270.84179688 C-419.51920497 266.37014992 -418.46114045 262.29610221 -417 258 C-416.53032257 255.52672753 -416.09528356 253.04672748 -415.6875 250.5625 C-414.4723536 243.63223014 -412.59215244 237.23855708 -410.25390625 230.59375 C-409.06600727 227.18917972 -408.01705263 223.77130248 -407 220.3125 C-402.40750505 205.33697299 -395.73613435 188.67487305 -386.38671875 175.984375 C-384.8429204 173.8446645 -384.8429204 173.8446645 -383.18359375 170.76171875 C-380.86450732 166.64874594 -378.16647027 162.86531845 -375.375 159.0625 C-374.88515625 158.37865234 -374.3953125 157.69480469 -373.890625 156.99023438 C-372.64559402 155.28767151 -371.32839289 153.63835123 -370 152 C-369.34 152 -368.68 152 -368 152 C-367.7525 151.443125 -367.505 150.88625 -367.25 150.3125 C-365.77075182 147.57589087 -364.06532561 145.32349131 -362 143 C-361.34 143 -360.68 143 -360 143 C-359.773125 142.44828125 -359.54625 141.8965625 -359.3125 141.328125 C-357.61274074 138.31307583 -355.45195184 136.18769631 -353 133.75 C-352.113125 132.85796875 -351.22625 131.9659375 -350.3125 131.046875 C-348 129 -348 129 -346 129 C-345.731875 128.360625 -345.46375 127.72125 -345.1875 127.0625 C-344 125 -344 125 -341 124 C-340.505 122.515 -340.505 122.515 -340 121 C-335.54285714 117 -335.54285714 117 -333 117 C-333 116.34 -333 115.68 -333 115 C-329.53846154 112 -329.53846154 112 -327 112 C-327 111.34 -327 110.68 -327 110 C-325.05078125 108.37109375 -325.05078125 108.37109375 -322.3125 106.4375 C-321.3121875 105.72722656 -320.311875 105.01695312 -319.28125 104.28515625 C-314.87438384 101.21608874 -310.45779507 98.16170863 -306.03125 95.12109375 C-302.77162968 92.84019963 -299.60933659 90.46219529 -296.48828125 87.99609375 C-295 87 -295 87 -293 87 C-296.93874124 69.9321213 -307.61467561 54.17400524 -316 39 C-316.43094971 38.2177002 -316.86189941 37.43540039 -317.3059082 36.62939453 C-319.31528735 32.99322641 -321.3525003 29.37890343 -323.45703125 25.796875 C-324.04194336 24.79140625 -324.04194336 24.79140625 -324.63867188 23.765625 C-325.43297828 22.4016912 -326.23531369 21.04240688 -327.04492188 19.6875 C-330.70781607 13.33437931 -330.70781607 13.33437931 -330 9 C-328.625 7.1875 -328.625 7.1875 -327 6 C-326.34 6 -325.68 6 -325 6 C-324.67 5.01 -324.34 4.02 -324 3 C-323.34 3 -322.68 3 -322 3 C-322 2.34 -322 1.68 -322 1 C-320.35 1 -318.7 1 -317 1 C-317 1.66 -317 2.32 -317 3 C-316.01 3.33 -315.02 3.66 -314 4 C-314 4.66 -314 5.32 -314 6 C-313.34 6 -312.68 6 -312 6 C-310.15533168 8.23349547 -308.4397888 10.46550867 -306.75 12.8125 C-306.25129395 13.50029541 -305.75258789 14.18809082 -305.23876953 14.89672852 C-301.97609514 19.46500491 -299.08644955 24.08749615 -296.51171875 29.08203125 C-294.66262569 32.65121088 -292.67570828 36.13204219 -290.6875 39.625 C-287.43690756 45.37307458 -284.27611751 51.16329329 -281.1875 57 C-280.8268042 57.68143066 -280.4661084 58.36286133 -280.09448242 59.06494141 C-277.9598683 63.12006393 -275.90441613 67.20351328 -273.9230957 71.3359375 C-272.99559219 73.18796257 -272.99559219 73.18796257 -271 75 C-263.19788847 77.15230663 -257.52206247 74.59785861 -250.33984375 71.6953125 C-245.98507014 69.94786188 -241.56704732 68.5557968 -237.0625 67.25 C-236.05316406 66.95295166 -236.05316406 66.95295166 -235.0234375 66.64990234 C-230.05814888 65.22201605 -225.05082097 64.08073152 -220 63 C-218.91924194 62.76095947 -218.91924194 62.76095947 -217.81665039 62.51708984 C-177.22807834 53.5918541 -137.03280324 53.87567867 -96.39941406 62.49267578 C-94.04803069 62.98984455 -91.69278699 63.46311999 -89.3359375 63.93359375 C-77.90411191 66.27701393 -66.65176349 69.44890305 -55.84082031 73.88623047 C-50.95939166 75.97477399 -50.95939166 75.97477399 -46 75 C-44.61373764 73.45894127 -44.61373764 73.45894127 -43.546875 71.44140625 C-43.10013428 70.67521973 -42.65339355 69.9090332 -42.19311523 69.11962891 C-41.71688721 68.27577637 -41.24065918 67.43192383 -40.75 66.5625 C-39.69599703 64.74754277 -38.63989374 62.93380414 -37.58203125 61.12109375 C-36.72859131 59.6513208 -36.72859131 59.6513208 -35.85791016 58.15185547 C-33.86704807 54.77445344 -31.82527431 51.43088976 -29.76171875 48.09765625 C-29.22349991 47.22818108 -29.22349991 47.22818108 -28.67440796 46.34114075 C-26.90059119 43.47905291 -25.12300854 40.6193262 -23.34472656 37.76000977 C-22.69342773 36.70740967 -22.04212891 35.65480957 -21.37109375 34.5703125 C-20.79286865 33.63977051 -20.21464355 32.70922852 -19.61889648 31.75048828 C-17.93731042 28.89349106 -16.449173 25.98066978 -15 23 C-14.34 23 -13.68 23 -13 23 C-12.78601563 22.19304688 -12.57203125 21.38609375 -12.3515625 20.5546875 C-10.60848236 15.97028598 -8.08902992 12.18915647 -5.375 8.125 C-4.859375 7.34125 -4.34375 6.5575 -3.8125 5.75 C-2.54763162 3.82927393 -1.27672497 1.91285653 0 0 Z M-291.3515625 167.578125 C-295.36565158 173.9891162 -295.41981294 180.41731816 -293.796875 187.6328125 C-292.11840669 192.61885072 -288.47749974 196.31502571 -284 199 C-278.33767256 199.83288511 -271.76256815 200.39002638 -266.53125 197.7578125 C-262.02201185 193.91731729 -259.75088296 190.24021156 -259.16796875 184.24609375 C-259.11253906 183.50488281 -259.05710937 182.76367188 -259 182 C-258.93425781 181.24847656 -258.86851562 180.49695313 -258.80078125 179.72265625 C-258.57298675 175.12749128 -258.91015134 171.41324178 -261.48046875 167.5078125 C-265.69569682 163.32509262 -271.83404906 161.81112561 -277.625 161.5 C-282.96809533 161.79316098 -287.80086311 163.43222166 -291.3515625 167.578125 Z M-55.875 168.75 C-59.07639804 173.64625582 -59.95884838 177.69550908 -60.0625 183.5 C-58.1820834 189.69431352 -53.85795107 194.21681453 -48.3125 197.5 C-43.07543098 199.78675139 -37.59092949 199.76383121 -32 199 C-26.52056082 196.55382179 -24.48472584 193.24553233 -22 188 C-20.20807384 182.47489433 -20.05054359 175.56911734 -22.0625 170.125 C-26.95949066 164.75410702 -33.78707881 162.31092786 -40.875 161.625 C-47.0825365 161.81490551 -51.47426935 164.54060547 -55.875 168.75 Z " fill="#000000" transform="translate(578,39)"/>
<path d="M0 0 C1.5234375 1.4921875 1.5234375 1.4921875 2.546875 3.609375 C3.43074246 5.84825912 3.43074246 5.84825912 6.5234375 6.4921875 C20.03448494 21.98485523 18.81805092 43.38709671 18.76635742 62.57763672 C18.7674319 64.90001478 18.76937303 67.22239259 18.77210999 69.54476929 C18.7769356 75.8216927 18.76933056 82.09854444 18.75915694 88.37545919 C18.75123087 94.29495141 18.75199562 100.21443808 18.75243226 106.13393463 C18.75293162 117.8671342 18.74380662 129.6003064 18.72924805 141.33349609 C18.71516972 152.68571471 18.70807713 164.03790925 18.70874023 175.39013672 C18.70880017 176.43864946 18.70880017 176.43864946 18.70886131 177.50834428 C18.70890167 178.20621372 18.70894202 178.90408316 18.7089836 179.62310016 C18.70971099 193.24877125 18.70270829 206.87443003 18.693537 220.50009775 C18.69141322 224.40905076 18.69069684 228.31800189 18.69029808 232.22695541 C18.68928769 238.38792889 18.68313466 244.54887745 18.67313194 250.70984268 C18.67023065 252.96113177 18.66897672 255.21242372 18.66955948 257.4637146 C18.67484938 290.3626741 18.67484938 290.3626741 15.3984375 302.0546875 C15.07020996 303.24856079 15.07020996 303.24856079 14.73535156 304.46655273 C10.28395351 319.841163 2.55109545 332.77816911 -11.5546875 341.01953125 C-27.44052966 349.0261656 -44.32294966 348.12071409 -60.984375 343.0703125 C-67.49873515 340.90166099 -73.50906389 337.87020058 -79.4765625 334.4921875 C-79.4765625 333.8321875 -79.4765625 333.1721875 -79.4765625 332.4921875 C-80.59224609 332.10546875 -80.59224609 332.10546875 -81.73046875 331.7109375 C-90.41480459 327.85672302 -95.90233798 318.37351184 -99.57421875 309.984375 C-100.44224742 307.58696247 -101.04741126 305.30425895 -101.5390625 302.8046875 C-101.69503906 302.03769531 -101.85101563 301.27070312 -102.01171875 300.48046875 C-103.20918337 292.78248194 -103.62389582 285.15547218 -103.61027527 277.37295532 C-103.61254083 276.40507595 -103.61480638 275.43719659 -103.61714059 274.43998754 C-103.62342849 271.22381391 -103.62265461 268.00768298 -103.62182617 264.79150391 C-103.62482087 262.47455288 -103.62822412 260.15760235 -103.63200378 257.84065247 C-103.64081523 251.56584296 -103.64318066 245.29104711 -103.64381957 239.01623201 C-103.64453157 235.09200048 -103.6466687 231.16777239 -103.64931679 227.24354172 C-103.65808358 214.24841465 -103.66273768 201.25329723 -103.66198631 188.25816734 C-103.66194636 187.5590561 -103.6619064 186.85994486 -103.66186523 186.13964844 C-103.66182435 185.43967548 -103.66178347 184.73970252 -103.66174135 184.01851825 C-103.66133492 172.67525933 -103.67090654 161.3320336 -103.6850036 149.98878427 C-103.69939279 138.31763878 -103.70608958 126.64651099 -103.70540982 114.97535646 C-103.7051553 108.43246559 -103.70798163 101.88961234 -103.71858788 95.34672928 C-103.72829271 89.19235859 -103.72833166 83.0380613 -103.72107124 76.88368797 C-103.72002845 74.63113866 -103.72237008 72.37858472 -103.7284317 70.12604332 C-103.78246387 48.64854933 -103.78246387 48.64854933 -101.4765625 38.4921875 C-101.28512759 37.51349512 -101.09369268 36.53480274 -100.89645672 35.52645302 C-97.3922859 18.02299823 -87.69936706 2.23228185 -73.4765625 -8.5078125 C-50.81978658 -22.16167599 -20.07562315 -14.99318691 0 0 Z " fill="#000000" transform="translate(122.4765625,358.5078125)"/>
<path d="M0 0 C0.47308594 0.37898438 0.94617188 0.75796875 1.43359375 1.1484375 C1.43359375 1.8084375 1.43359375 2.4684375 1.43359375 3.1484375 C2.07296875 3.4165625 2.71234375 3.6846875 3.37109375 3.9609375 C5.43359375 5.1484375 5.43359375 5.1484375 6.43359375 8.1484375 C7.91859375 8.6434375 7.91859375 8.6434375 9.43359375 9.1484375 C11.04288961 11.58460913 12.47813257 13.96765152 13.87109375 16.5234375 C14.47268311 17.61881836 14.47268311 17.61881836 15.08642578 18.73632812 C24.82580394 36.80611842 25.88300723 54.92642467 25.82177734 75.03613281 C25.82585092 77.30158235 25.83119717 79.56702991 25.83770752 81.83247375 C25.85129656 87.94222869 25.84611655 94.05183036 25.83657026 100.16158772 C25.82892611 106.5863871 25.83603274 113.01117417 25.84072876 119.43597412 C25.84652204 130.91515109 25.8372487 142.3942504 25.82195075 153.8734152 C25.80856317 164.23904933 25.81086846 174.60458255 25.82470703 184.97021484 C25.84083725 197.05773678 25.84669667 209.14517968 25.83787024 221.23271441 C25.83322155 227.61257771 25.83249058 233.99237183 25.84247971 240.37223053 C25.85122651 246.37737026 25.84498835 252.38232195 25.82779694 258.38744164 C25.82387219 260.57535428 25.82489606 262.7632831 25.83158493 264.95118904 C25.89310817 287.14301492 23.31777553 306.71130787 14.43359375 327.1484375 C13.77359375 327.1484375 13.11359375 327.1484375 12.43359375 327.1484375 C12.35109375 327.70789063 12.26859375 328.26734375 12.18359375 328.84375 C9.86840623 335.95812833 2.09083381 342.06066379 -4.1015625 345.90234375 C-17.9885877 352.92288422 -34.89372092 354.87463139 -49.82373047 350.25439453 C-53.456772 349.00387716 -57.02370511 347.63491107 -60.56640625 346.1484375 C-61.56671875 345.73078125 -62.56703125 345.313125 -63.59765625 344.8828125 C-71.55538192 341.19868024 -78.75142112 335.7137433 -84.56640625 329.1484375 C-84.56640625 328.4884375 -84.56640625 327.8284375 -84.56640625 327.1484375 C-85.22640625 327.1484375 -85.88640625 327.1484375 -86.56640625 327.1484375 C-87.54243325 325.5340029 -88.496182 323.90609757 -89.44140625 322.2734375 C-90.24191406 320.91605469 -90.24191406 320.91605469 -91.05859375 319.53125 C-94.5395861 311.72156249 -94.86060726 303.5773571 -94.83383179 295.13825989 C-94.8383629 294.07449196 -94.84289401 293.01072403 -94.84756243 291.91472071 C-94.86015537 288.37384759 -94.85858935 284.83312928 -94.85693359 281.29223633 C-94.86292204 278.74370121 -94.86972832 276.1951679 -94.87728882 273.64663696 C-94.89309467 267.45597652 -94.89939583 261.26537215 -94.90051357 255.07469342 C-94.90146675 250.03786984 -94.90559047 245.00105875 -94.91191483 239.96423912 C-94.92951234 225.6562043 -94.93875609 211.34819938 -94.93725388 197.04015366 C-94.93717397 196.2701427 -94.93709405 195.50013174 -94.93701172 194.70678711 C-94.93692996 193.93582633 -94.9368482 193.16486554 -94.93676396 192.37054231 C-94.93595158 179.88469726 -94.9550809 167.398973 -94.98328845 154.91316286 C-95.01208206 142.06565429 -95.02582518 129.2182045 -95.0241009 116.37066287 C-95.02343921 109.1686805 -95.02883402 101.96682474 -95.050457 94.7648716 C-95.07067638 87.98745239 -95.06992927 81.21034371 -95.05542374 74.43289566 C-95.05334077 71.954233 -95.05800574 69.47555344 -95.07014465 66.99691963 C-95.14441371 50.77322358 -94.52249505 36.31485985 -86.69140625 21.7109375 C-86.34263428 21.04118896 -85.9938623 20.37144043 -85.63452148 19.68139648 C-79.61155072 8.35257398 -70.80233767 -3.33362113 -58.19140625 -7.4765625 C-57.48242188 -7.71632813 -56.7734375 -7.95609375 -56.04296875 -8.203125 C-37.06796177 -13.17134449 -16.52896062 -10.11714159 0 0 Z " fill="#000000" transform="translate(795.56640625,352.8515625)"/>
</svg>
